<?xml version="1.0" encoding="utf-8"?>
<!-- Generator: Adobe Illustrator 24.3.0, SVG Export Plug-In . SVG Version: 6.00 Build 0)  -->
<svg version="1.1" id="Layer_1" xmlns="http://www.w3.org/2000/svg" xmlns:xlink="http://www.w3.org/1999/xlink" x="0px" y="0px"
	 viewBox="0 0 288.1 267.1" style="enable-background:new 0 0 288.1 267.1;" xml:space="preserve">
<style type="text/css">
	.st0{fill:#010101;}
</style>
<path class="st0" d="M286.1,208.3l-7.4-18.4l-7.8-12.7L260,164.1l-20.8-20.5l-3.3-4.1l-2-4.1l-1.4-4l-2.5-17.6l-7.1-47.3l-2.4-12.8
	l-2.9-2.2l-10.4-3.3l-7.3-2.1l-7-0.9l-5.2,1.2l-5.2-1.2l-4-2.1l-1.6-4.1l-2.1-7.1l-1.3-6.3l-6-10.5l-6.5-7l-7.4-4.6l-6.5-2.1
	l-7.4-1.1l-9.2,1.6L119.3,9l-3.6,2.9l-6.2,9.5l-3.2,10.4l-2,7.8l-5.4,5.6l-4.3,1l-5.7-1h-7.1l-9.8,2L65.8,49l-7,5.5l-4,8.7
	l-3.2,28.3l-3.5,32.9l-1.7,6l-5.9,9.8l-22.8,32.3l-10.4,19L1.6,205l-1.4,14.1v9.8l6.5,12.3l5.5,5.9l6.7,4.4l10.8,2.7l9.8,0.8l7-0.6
	l3.1-1.1l2.9,1l6.5,6l11.2,3l17.4,2.5l29,1h28.1l25.5-2.1l53.3-3.3l2.5-1c0,0,1.8-1.1,2.7-1.4c0.8-0.3,0.8-2.2,1-3
	c0.6-1.2,1.3-2.3,2.1-3.3l2-1.1l15.7,1.9h7.7l7-1.3l11.2-8.1l6-6.2l5.2-9l1.1-10.3L286.1,208.3z M45.4,239.8l-2.8,3.4l-3.9,2.6
	l-4,1.4l-5-0.4l-5.2-4.5l-4.9-8.1L17,227l-0.7-8.5l1.5-8.9l5.7-16.2l8-13.9l12.8-16.6v22.7l1.7,39.9l0.6,9.5L45.4,239.8z
	 M160.3,41.6l-0.5,1.7l-1,1.2l-1.7,0.6h-33.9l-2.5-0.4l-1.8-1.1l-1.6-2.2l-0.5-1.9v-7.2l1-5.2l2.5-7.1l4.2-5.8l3.2-3.1l3.6-2.5
	l4.4-2l5.1-0.9l3.5,0.6l6.2,2.1l3.2,2.9l2.4,2.8l2.1,3.8l1,5.5l0.8,6.7c0,0-0.2,4.4,0,4.9C160.4,35.9,160.3,41.6,160.3,41.6z
	 M272.1,232.1L270,238l-3.8,4.2l-5.9,3h-6.8l-7-2.3l-7.9-5.4l-4.2-4.8l-0.6-4.1V224l1.9-21.6l1-23.7l0.6-15.8l12.1,14.1l12.9,18.5
	l8.5,22.6l1.9,6.5L272.1,232.1z"/>
</svg>
