<svg xmlns="http://www.w3.org/2000/svg" width="381.318" height="31.799" viewBox="0 0 381.318 31.799">
  <g id="SODAA_LOGO" transform="translate(-13.37 -12.897)">
    <path id="Path_4" data-name="Path 4" d="M94.666,13.293h1.268c-.082,3.6-.018,7.649-.049,10.869H94.422c-.731-2.4-1.436-4.822-2.875-6.628a7.093,7.093,0,0,0-6.434-3.022,5.077,5.077,0,0,0-4.726,5.995,4.514,4.514,0,0,0,.439,1.315c1.161,2.093,3.562,2.972,6.141,3.8,2.549.82,5.1,1.557,7.017,2.925a7.513,7.513,0,0,1,3.461,6.53A9.8,9.8,0,0,1,91.3,43.851a8.748,8.748,0,0,1-4.1.681,12.064,12.064,0,0,1-5.652-1.8A3.414,3.414,0,0,0,79.8,42c-1.575.064-1.273,2.282-3.558,1.755-.08-3.689-.1-7.438-.1-11.21a11.167,11.167,0,0,1,1.659-.047c1.015,4.131,2.357,7.254,5.506,9.161a8.379,8.379,0,0,0,3.656,1.219c4.454.342,7.6-3.194,6.334-7.262-1.565-5.032-7.866-4.569-12.329-7.017a8.021,8.021,0,0,1-3.46-3.558,8.232,8.232,0,0,1-.633-5.8,9.292,9.292,0,0,1,3.556-4.777A10.281,10.281,0,0,1,85.31,12.9,10.916,10.916,0,0,1,91.3,14.61c.44.253.828.869,1.511.828C93.861,15.374,93.957,13.835,94.666,13.293Z" fill="#ffb711" fill-rule="evenodd"/>
    <path id="Path_5" data-name="Path 5" d="M13.474,13.343c2.5,0,5.349.009,7.8,0,5.816,7.359,11.249,15.1,16.96,22.563.088-2.484.049-5.44.049-8.43,0-2.953.153-5.965,0-8.48-.163-2.693-1.708-3.965-4.63-3.948a10.981,10.981,0,0,1,.049-1.656c3.66-.038,7.175.068,10.819.048a11,11,0,0,1,.048,1.657c-2.231.072-4.077.857-4.288,3.022-.194,1.985,0,4.239,0,6.482V44.046A19.89,19.89,0,0,1,38.084,44c-5.94-7.884-11.732-15.916-17.739-23.734-.079,4.118-.049,9.925-.049,14.766,0,2.053-.285,4.334.439,5.557.818,1.379,2.408,1.621,4.435,1.8a6.206,6.206,0,0,1-.1,1.608c-4.018-.033-7.586.082-11.6.049a10.363,10.363,0,0,1-.049-1.609c2.171-.118,4.394-.67,4.679-2.826a22.783,22.783,0,0,0,0-2.827V20.117a19.553,19.553,0,0,0,.048-2.729,3.328,3.328,0,0,0-1.218-1.559,7.841,7.841,0,0,0-3.558-.781c-.028-.666.062-1.078,0-1.559A.133.133,0,0,1,13.474,13.343Z" fill="#ffb711" fill-rule="evenodd"/>
    <path id="Path_6" data-name="Path 6" d="M45.736,13.44c7.443.31,15.724-.886,20.908,1.462a14.7,14.7,0,0,1,6,5.215,15.491,15.491,0,0,1,2.338,8.821c0,7-3.475,11.585-8.431,13.84-2.739,1.248-6.089,1.268-9.942,1.268-3.728,0-7.312-.074-11.014-.049a5.417,5.417,0,0,1,0-1.608c1.8-.1,3.537-.087,4.045-1.608.414-1.238.2-3.735.2-5.654,0-3.681.018-8,.048-11.4.018-1.845.12-3.734-.048-5.653a2.947,2.947,0,0,0-1.8-2.729,11.336,11.336,0,0,0-2.338-.244,10.116,10.116,0,0,1-.049-1.511C45.68,13.547,45.668,13.453,45.736,13.44Zm9.211,3.167a7.642,7.642,0,0,0-.292,2.828V38.148a8.168,8.168,0,0,0,.243,2.875c.5,1.1,1.852,1.294,3.266,1.414,3.256.275,6.1-.269,7.895-1.8a8.363,8.363,0,0,0,2.484-4.046c.994-3.248.96-8.289.635-12.085a11.791,11.791,0,0,0-1.413-5.166c-1.592-2.718-4.43-4.312-9.017-4.094C57.02,15.326,55.607,15.235,54.947,16.607Z" fill="#ffb711" fill-rule="evenodd"/>
    <path id="Path_7" data-name="Path 7" d="M128.391,13.38c.028.431-.019,1.131,0,1.706-1.95.088-3.49.428-4.045,1.852a10.271,10.271,0,0,0-.244,3.314V30.828c0,2.331.261,4.953-.194,6.871-1.241,5.224-7.01,8.058-13.842,6.628-3.629-.76-6.867-2.8-7.943-6.141a17.7,17.7,0,0,1-.439-5.116c0-3.714-.049-7.124-.049-10.966,0-.879.045-1.81,0-2.777-.089-1.936-.1-3.522-1.608-4.046a23.257,23.257,0,0,0-2.777-.292c-.01-.636-.014-.98,0-1.609H110.7c-.01.767,0,1.051-.048,1.706-2-.044-3.582.092-4.143,1.414a6.226,6.226,0,0,0-.147,2.339c.1,2.555-.01,5.6,0,7.8.009,1.79.025,3.622.05,5.216a43.114,43.114,0,0,0,.1,5.213c.583,4.109,4.456,6.4,9.162,5.606a7.6,7.6,0,0,0,6.141-4.972,17.485,17.485,0,0,0,.341-5.166c0-3.627-.05-7.276-.05-10.575,0-2.733.17-5.434-1.753-6.433a10.635,10.635,0,0,0-2.973-.488V13.38C121.09,13.435,125.066,13.261,128.391,13.38Z" fill="#ffb711" fill-rule="evenodd"/>
    <g id="Group_7" data-name="Group 7">
      <path id="Path_8" data-name="Path 8" d="M137.387,25.366l.68-.78a6.8,6.8,0,0,0,5.021,2.08c2.1,0,3.541-1.18,3.541-2.78v-.04c0-1.48-.779-2.341-3.961-2.981-3.36-.68-4.721-1.82-4.721-3.941v-.04c0-2.08,1.9-3.68,4.5-3.68a6.984,6.984,0,0,1,4.8,1.7l-.66.82a6.029,6.029,0,0,0-4.182-1.58c-2.06,0-3.42,1.18-3.42,2.641v.04c0,1.48.76,2.38,4.08,3.06,3.241.66,4.6,1.821,4.6,3.861v.04c0,2.26-1.941,3.821-4.642,3.821A7.969,7.969,0,0,1,137.387,25.366Z" fill="#fff"/>
      <path id="Path_9" data-name="Path 9" d="M149.348,20.445v-.04a7.037,7.037,0,0,1,7-7.241,7.38,7.38,0,0,1,5.44,2.24l-.74.761a6.418,6.418,0,0,0-4.721-2.061,5.986,5.986,0,0,0-5.9,6.261v.04a6.038,6.038,0,0,0,5.921,6.3,6.416,6.416,0,0,0,4.821-2.181l.7.68a7.384,7.384,0,0,1-5.56,2.441A6.96,6.96,0,0,1,149.348,20.445Z" fill="#fff"/>
      <path id="Path_10" data-name="Path 10" d="M164.447,13.4h1.04v6.481h8.962V13.4h1.04v14h-1.04V20.845h-8.962v6.562h-1.04Z" fill="#fff"/>
      <path id="Path_11" data-name="Path 11" d="M178.746,20.445v-.04a7.044,7.044,0,1,1,14.083-.04c.021.02.021.02,0,.04a7.044,7.044,0,1,1-14.083.04Zm13,0v-.04a6.059,6.059,0,0,0-5.981-6.3,5.993,5.993,0,0,0-5.941,6.261v.04a6.06,6.06,0,0,0,5.981,6.3A5.993,5.993,0,0,0,191.749,20.445Z" fill="#fff"/>
      <path id="Path_12" data-name="Path 12" d="M195.466,20.445v-.04a7.044,7.044,0,1,1,14.083-.04c.02.02.02.02,0,.04a7.044,7.044,0,1,1-14.083.04Zm13,0v-.04a6.06,6.06,0,0,0-5.982-6.3,5.992,5.992,0,0,0-5.94,6.261v.04a6.059,6.059,0,0,0,5.98,6.3A5.994,5.994,0,0,0,208.469,20.445Z" fill="#fff"/>
      <path id="Path_13" data-name="Path 13" d="M212.806,13.4h1.041V26.446h8.221v.961h-9.262Z" fill="#fff"/>
      <path id="Path_14" data-name="Path 14" d="M229.846,20.445v-.04a7.044,7.044,0,1,1,14.083-.04c.02.02.02.02,0,.04a7.044,7.044,0,1,1-14.083.04Zm13,0v-.04a6.06,6.06,0,0,0-5.982-6.3,5.992,5.992,0,0,0-5.94,6.261v.04a6.059,6.059,0,0,0,5.98,6.3A5.994,5.994,0,0,0,242.849,20.445Z" fill="#fff"/>
      <path id="Path_15" data-name="Path 15" d="M247.246,13.4h9.862v.96h-8.821V20.1h7.921v.96h-7.921v6.342h-1.041Z" fill="#fff"/>
      <path id="Path_16" data-name="Path 16" d="M266.286,13.4h4.661c4.4,0,7.442,3.02,7.442,6.961v.04c0,3.941-3.04,7-7.442,7h-4.661Zm4.661,13.042c3.9,0,6.362-2.66,6.362-6v-.04a5.983,5.983,0,0,0-6.362-6.041h-3.62V26.446Z" fill="#fff"/>
      <path id="Path_17" data-name="Path 17" d="M282.025,13.4h9.963v.96h-8.922v5.5h8.022v.96h-8.022v5.621h9.022v.961H282.025Z" fill="#fff"/>
      <path id="Path_18" data-name="Path 18" d="M294.627,25.366l.68-.78a6.8,6.8,0,0,0,5.021,2.08c2.1,0,3.54-1.18,3.54-2.78v-.04c0-1.48-.78-2.341-3.961-2.981-3.36-.68-4.72-1.82-4.72-3.941v-.04c0-2.08,1.9-3.68,4.5-3.68a6.978,6.978,0,0,1,4.8,1.7l-.66.82a6.029,6.029,0,0,0-4.181-1.58c-2.06,0-3.42,1.18-3.42,2.641v.04c0,1.48.76,2.38,4.081,3.06,3.241.66,4.6,1.821,4.6,3.861v.04c0,2.26-1.94,3.821-4.641,3.821A7.966,7.966,0,0,1,294.627,25.366Z" fill="#fff"/>
      <path id="Path_19" data-name="Path 19" d="M308.767,13.4h1.04v14h-1.04Z" fill="#fff"/>
      <path id="Path_20" data-name="Path 20" d="M313.686,20.445v-.04a6.992,6.992,0,0,1,6.921-7.241A7.344,7.344,0,0,1,325.729,15l-.681.78a6.305,6.305,0,0,0-4.5-1.68c-3.4,0-5.781,2.88-5.781,6.261v.04c0,3.621,2.259,6.322,6,6.322a7.2,7.2,0,0,0,4.461-1.6V21.1h-4.681v-.96h5.681v5.4a8.423,8.423,0,0,1-5.5,2.1C316.307,27.647,313.686,24.386,313.686,20.445Z" fill="#fff"/>
      <path id="Path_21" data-name="Path 21" d="M329.985,13.4h.981l9.662,12.182V13.4h1v14h-.78l-9.862-12.443V27.407h-1Z" fill="#fff"/>
      <path id="Path_22" data-name="Path 22" d="M344.766,29.047c.86-.44,1.179-.88,1.12-1.64h-.54v-1.7h1.32v1.48a2.208,2.208,0,0,1-1.661,2.36Z" fill="#fff"/>
      <path id="Path_23" data-name="Path 23" d="M143.608,29.8h1l6.522,14.1H149.99l-1.781-3.921h-8.261l-1.781,3.921h-1.08Zm4.162,9.242-3.681-8.1-3.7,8.1Z" fill="#fff"/>
      <path id="Path_24" data-name="Path 24" d="M153.828,29.9h5.881a5.512,5.512,0,0,1,3.94,1.38,3.688,3.688,0,0,1,1.061,2.6v.04c0,2.341-1.741,3.68-4.1,4l4.621,5.981h-1.32l-4.461-5.8h-4.582v5.8h-1.039Zm5.761,7.262c2.341,0,4.081-1.181,4.081-3.2v-.04c0-1.881-1.481-3.061-4.022-3.061h-4.781v6.3Z" fill="#fff"/>
      <path id="Path_25" data-name="Path 25" d="M167.407,36.945V36.9a7.037,7.037,0,0,1,7-7.241,7.387,7.387,0,0,1,5.442,2.24l-.741.761a6.42,6.42,0,0,0-4.72-2.061,5.986,5.986,0,0,0-5.9,6.261v.04a6.038,6.038,0,0,0,5.921,6.3,6.407,6.407,0,0,0,4.821-2.181l.7.68a7.382,7.382,0,0,1-5.561,2.441A6.959,6.959,0,0,1,167.407,36.945Z" fill="#fff"/>
      <path id="Path_26" data-name="Path 26" d="M182.627,29.9h1.041v6.482h8.962V29.9h1.04v14h-1.04V37.346h-8.962v6.561h-1.041Z" fill="#fff"/>
      <path id="Path_27" data-name="Path 27" d="M197.588,29.9h1.04v14h-1.04Z" fill="#fff"/>
      <path id="Path_28" data-name="Path 28" d="M206.647,30.864h-4.88V29.9h10.8v.96h-4.881V43.907h-1.041Z" fill="#fff"/>
      <path id="Path_29" data-name="Path 29" d="M215.466,29.9h9.963v.96h-8.922v5.5h8.021v.96h-8.021v5.621h9.021v.961H215.466Z" fill="#fff"/>
      <path id="Path_30" data-name="Path 30" d="M228.087,36.945V36.9a7.038,7.038,0,0,1,7-7.241,7.386,7.386,0,0,1,5.441,2.24l-.74.761a6.424,6.424,0,0,0-4.722-2.061,5.986,5.986,0,0,0-5.9,6.261v.04a6.038,6.038,0,0,0,5.921,6.3,6.412,6.412,0,0,0,4.821-2.181l.7.68a7.382,7.382,0,0,1-5.561,2.441A6.96,6.96,0,0,1,228.087,36.945Z" fill="#fff"/>
      <path id="Path_31" data-name="Path 31" d="M247.187,30.864h-4.88V29.9h10.8v.96h-4.88V43.907h-1.042Z" fill="#fff"/>
      <path id="Path_32" data-name="Path 32" d="M255.887,38.086V29.9h1.04v8.081c0,3.3,1.78,5.2,4.741,5.2,2.841,0,4.661-1.72,4.661-5.1V29.9h1.04v8.062c0,4.02-2.341,6.161-5.741,6.161C258.268,44.127,255.887,42.007,255.887,38.086Z" fill="#fff"/>
      <path id="Path_33" data-name="Path 33" d="M271.146,29.9h5.882a5.518,5.518,0,0,1,3.941,1.38,3.692,3.692,0,0,1,1.06,2.6v.04c0,2.341-1.74,3.68-4.1,4l4.62,5.981h-1.32l-4.461-5.8h-4.581v5.8h-1.041Zm5.762,7.262c2.341,0,4.081-1.181,4.081-3.2v-.04c0-1.881-1.48-3.061-4.021-3.061h-4.781v6.3Z" fill="#fff"/>
      <path id="Path_34" data-name="Path 34" d="M285.446,29.9h9.963v.96h-8.922v5.5h8.022v.96h-8.022v5.621h9.022v.961H285.446Z" fill="#fff"/>
      <path id="Path_35" data-name="Path 35" d="M308.849,29.8h1l6.521,14.1h-1.14l-1.78-3.921h-8.262l-1.781,3.921h-1.08Zm4.161,9.242-3.681-8.1-3.7,8.1Z" fill="#fff"/>
      <path id="Path_36" data-name="Path 36" d="M319.287,29.9h.981l9.662,12.183V29.9h1v14h-.781l-9.861-12.443V43.907h-1Z" fill="#fff"/>
      <path id="Path_37" data-name="Path 37" d="M334.946,29.9h4.661c4.4,0,7.442,3.02,7.442,6.961v.04c0,3.942-3.04,7-7.442,7h-4.661Zm4.661,13.042c3.9,0,6.362-2.66,6.362-6V36.9a5.983,5.983,0,0,0-6.362-6.041h-3.62V42.946Z" fill="#fff"/>
      <path id="Path_38" data-name="Path 38" d="M360.388,29.8h1l6.521,14.1H366.77l-1.781-3.921h-8.261l-1.782,3.921h-1.08Zm4.161,9.242-3.681-8.1-3.7,8.1Z" fill="#fff"/>
      <path id="Path_39" data-name="Path 39" d="M370.646,29.9h5.882a5.518,5.518,0,0,1,3.941,1.38,3.692,3.692,0,0,1,1.06,2.6v.04c0,2.341-1.74,3.68-4.1,4l4.62,5.981h-1.32l-4.461-5.8h-4.581v5.8h-1.041Zm5.762,7.262c2.341,0,4.081-1.181,4.081-3.2v-.04c0-1.881-1.48-3.061-4.021-3.061h-4.781v6.3Z" fill="#fff"/>
      <path id="Path_40" data-name="Path 40" d="M388.767,30.864h-4.881V29.9h10.8v.96h-4.88V43.907h-1.041Z" fill="#fff"/>
    </g>
  </g>
</svg>
